<?xml version="1.0" encoding="UTF-8"?>
<!-- Generator: Adobe Illustrator 27.3.1, SVG Export Plug-In . SVG Version: 6.00 Build 0)  -->
<svg xmlns="http://www.w3.org/2000/svg" xmlns:xlink="http://www.w3.org/1999/xlink" version="1.1" id="Ebene_1" x="0px" y="0px" viewBox="0 0 512 512" style="enable-background:new 0 0 512 512;" xml:space="preserve">
<style type="text/css">
	.st0{fill:#FFFFFF;}
</style>
<path class="st0" d="M256,0C114.6,0,0,114.6,0,256s114.6,256,256,256s256-114.6,256-256C511.8,114.7,397.3,0.2,256,0z M256,486.4  C128.8,486.4,25.6,383.2,25.6,256S128.8,25.6,256,25.6S486.4,128.8,486.4,256C486.3,383.2,383.2,486.3,256,486.4z"></path>
<path class="st0" d="M256,153.6c29.9,0.1,58.2,13.4,77.5,36.3c4.6,5.4,12.7,6,18.1,1.4c5.4-4.6,6-12.7,1.4-18.1  c-45.7-53.9-126.5-60.6-180.4-14.9c-53.9,45.7-60.6,126.5-14.9,180.4c45.7,53.9,126.5,60.6,180.4,14.9c5.4-4.5,10.3-9.5,14.9-14.9  c4.6-5.4,3.9-13.5-1.4-18.1c-5.4-4.6-13.5-3.9-18.1,1.4c-36.6,42.9-101.1,48-144.1,11.4c-42.9-36.6-48-101.1-11.4-144.1  C197.5,166.6,226,153.5,256,153.6z"></path>
</svg>
