<svg enable-background="new 0 0 708.7 243.1" viewBox="0 0 708.7 243.1" xmlns="http://www.w3.org/2000/svg"><g fill="#fff" transform="matrix(6.1409135 0 0 6.1852072 -2593.44901 -1935.908)"><path d="m437.7 331.1v.2l-.1.3-.1.3-.2.4-.1.5-.2.6-.2.6-.3.6-.2.7-.2.7-.3.7-.2.7-.3.7-.2.7-.2.7-.3.7-.2.6-.1.5-.2.5-.2.4-.1.3-.1.3v.2.1l-.3.6-.1.6-.2.5-.2.5-.1.5-.1.5-.2.5-.1.5-.2-.7-.2-.6-.2-.6-.1-.6-.2-.6-.2-.5-.2-.5v-.2l-.1-.3-.2-.4-.1-.4-.2-.5-.2-.6-.2-.6-.2-.7-.2-.7-.2-.7-.3-.7-.2-.7-.3-.7-.2-.7-.2-.7-.3-.6-.2-.6-.1-.6-.2-.5-.1-.4-.2-.4-.1-.3v-.2l-.2-.5h-4.6l7.5 21.4h4.9l7.6-21.4h-4.4z"/><path d="m461.1 336.6-.1.3-.1.5-.2.6-.2.7-.3.7-.3.8-.2.8-.3.7-.2.7-.2.6-.2.4-.1.3v.1l-.2.6-.1.5-.2.6-.2.6-.1.6-.1.5h-.1l-.1-.6-.2-.6-.2-.6-.1-.6-.2-.6-.2-.6v-.1l-.1-.3-.2-.4-.2-.6-.2-.6-.3-.7-.2-.7-.3-.7-.2-.7-.3-.6-.2-.6-.1-.4-.1-.3-.1-.1h-4.3l5.7 15.4h4l5.8-15.4h-4.2z"/><path d="m492.6 336.3-.5-.1h-.6-.6l-.6.1-.6.1-.3.1h4.1l-.3-.1z"/><path d="m496 340.6v-.5l-.1-.5-.1-.4-.1-.4-.2-.4-.2-.4-.3-.4-.2-.3-.4-.3-.4-.3-.4-.2h-.1l-.3-.1-.6-.1-.5-.1h-.6-.6l-.6.1-.6.1-.3.1h-.2l-.5.2-.4.2-.5.3-.4.3-.3.4-.3.4-.3.4-.3.4.1-.7.1-.7v-.7-.6h-3.7v15.6h3.9v-7.5l.1-.6v-.6l.1-.5.2-.5.2-.5.2-.4.3-.4.3-.4.3-.3.3-.3.4-.2.4-.2.4-.1h.4l.6.1.4.2.4.3.2.4.2.5.1.6v.6 9.9h3.9v-10.9z"/><path d="m474.8 345.2v.3.5l-.1.5-.2.5-.2.4-.3.4-.3.4-.3.3-.4.3-.5.2-.5.1-.5.1-.6-.1-.5-.2-.4-.3-.2-.5-.1-.6v-.3l.1-.3.1-.3.1-.3.3-.2.2-.2.4-.2.4-.2.5-.2.6-.1.7-.1.8-.1zm3.9-4.1v-.4-.4l-.1-.4-.1-.4-.1-.4-.2-.3-.2-.3-.2-.3-.2-.3-.3-.3-.3-.2-.4-.2-.3-.2-.5-.2-.4-.2-.5-.1-.6-.1-.6-.1h-.6-.7-.6-.6l-.6.1-.5.1-.6.1-.5.1-.6.1-.5.1-.5.2h-.1v3.4l.5-.3.5-.2.6-.2.6-.2.6-.1.6-.1.6-.1h.5.7l.6.1.5.2.4.2.3.3.2.3.2.4.1.4v.5.8h-.6-.6l-.6.1h-.6l-.5.1-.6.1-.5.1-.5.1-.4.2-.5.2-.4.2-.4.2-.4.2-.3.2-.4.3-.2.3-.3.3-.3.3-.2.3-.2.4-.1.4-.1.4-.1.4v.4l-.1.4.1.5v.5l.2.5.1.4.2.4.3.4.3.3.3.3.4.2.4.2.5.2.5.1.5.1h.6.6l.5-.1.6-.1.4-.2.5-.2.5-.2.4-.3.3-.3.4-.4.3-.4.2-.4.2-.4h.1l-.1.6-.1.6v.7.7h.5 1.6.5.6.5v-10.4z"/><path d="m514.6 341.6.2-.6.2-.5.3-.4.4-.4.4-.3.4-.2.5-.1h.5.5l.5.1.5.2.3.3.3.4.3.4.2.5.1.6v.6h-5.7zm8.1 6.8-.6.2-.5.2-.6.2-.6.1-.6.1-.5.1h-.6-.6l-.5-.1-.5-.1-.5-.1-.4-.2-.4-.2-.3-.3-.3-.3-.2-.4-.2-.4-.2-.5-.1-.5v-.5l-.1-.6h9.6v-.6l.1-.6v-.6-.5-.5l-.1-.5-.1-.5-.1-.4-.1-.4-.2-.4-.1-.4-.2-.4-.3-.4-.2-.4-.3-.3-.3-.3-.3-.3-.4-.3-.4-.3-.4-.2-.4-.2-.4-.1-.5-.1-.6-.1-.5-.1h-.6-.5-.4l-.5.1-.5.1-.4.1-.4.1-.4.2-.4.2-.4.2-.3.2-.4.3-.3.3-.3.3-.2.3-.3.4-.2.4-.2.4-.2.4-.2.4-.1.4-.2.4-.1.5-.1.5-.1.5v.5l-.1.5v.5.6l.1.6v.5l.1.5.1.5.1.5.2.4.1.4.2.4.2.4.3.4.2.3.3.3.3.3.3.2.3.2.3.2.4.2.4.2.4.1.4.1.5.1.4.1.5.1h.5.5 1.1.6.6l.5-.1.6-.1.5-.1.6-.1.5-.1.5-.2h.2v-3.2z"/><path d="m500.8 331.8v4.7h-2.6v3.1h2.7v7.8.6.6l.1.5.1.5.1.4.2.4.2.4.2.3.3.3.3.2.4.2.4.1.4.1.5.1h.6.6.7.6l.7-.1.6-.1.6-.1v-3.2l-.6.1-.6.1h-.7l-.5-.1-.4-.1-.4-.2-.2-.4-.2-.5-.1-.6v-.8-6.8h3.7v-3.1h-3.7v-4.7h-4"/><path d="m530.7 340.8c0-1.3 1.3-1.7 2.4-1.7 1.4 0 2.3.4 3.6.8v-3c-1.2-.4-2.4-.7-4.1-.7-3.2 0-6.1 1.5-6.1 4.8 0 5.6 7 3.5 7 6.5 0 1.5-1.6 1.7-2.6 1.7-1.4 0-2.7-.3-4-1v3.3c1.4.4 2.9.8 4.3.8 3.3 0 6.5-1.4 6.5-5 0-5.6-7-4-7-6.5"/><path d="m443.8 339.6v12.4h3.9v-15.4h-3.9z"/><path d="m443.8 330.6v4c11.9 0 21.5-9.7 21.5-21.5h-3.9c0 9.6-7.9 17.5-17.6 17.5"/></g></svg>