<svg xmlns="http://www.w3.org/2000/svg" width="25.018" height="25.018" viewBox="0 0 25.018 25.018">
  <path id="Icon_awesome-phone" data-name="Icon awesome-phone" d="M23.127,1.153,18.253.028a1.132,1.132,0,0,0-1.289.652l-2.25,5.25a1.122,1.122,0,0,0,.323,1.312l2.841,2.325a17.372,17.372,0,0,1-8.306,8.306L7.246,15.032a1.124,1.124,0,0,0-1.312-.323l-5.25,2.25a1.138,1.138,0,0,0-.656,1.294l1.125,4.875A1.125,1.125,0,0,0,2.25,24,21.747,21.747,0,0,0,24,2.25,1.124,1.124,0,0,0,23.127,1.153Z" transform="translate(0.519 0.519)" fill="none" stroke="#fff" stroke-width="1"/>
</svg>
